<svg xmlns="http://www.w3.org/2000/svg" viewBox="0 0 160.6 48" width="161" height="48">
  <!-- pywidget logo -->
  <g transform="scale(0.3692)">
    <title>Logo</title>

	<path
		id="top-arrow"
		fill-rule="evenodd"
		clip-rule="evenodd"
		d="m45.32,32.42c-4.29-4.01-8.59-8.02-13-12.15,5.12-5.53,11.02-9.95,17.69-13.33C61.48,1.12,73.66-1.04,86.41.46c15.79,1.86,29.11,8.74,39.83,20.48,10.69,11.72,16.08,25.64,16.65,41.55h14.73c-7.77,8.78-15.36,17.35-23.01,26-7.86-8.65-15.65-17.21-23.6-25.95h13.91c-.1-5.14-1.08-9.98-2.85-14.67-3.57-9.42-9.61-16.86-17.97-22.47-16.49-11.08-42.33-10.69-58.78,7.02Z"
	/>

	<path
		id="bottom-arrow"
		fill-rule="evenodd"
		clip-rule="evenodd"
		d="m110.74,97.23c4.13,4.33,8.21,8.59,12.46,13.03-18.51,16.21-39.47,21.59-63.05,14.66-25.63-7.53-44.76-31.83-45.15-59.8H0c7.8-8.82,15.37-17.38,23.06-26.07,7.86,8.64,15.66,17.22,23.65,26h-13.55c-.39,11.14,5.77,28.28,21.9,38.16,16.62,10.18,39.59,9.15,55.68-5.98Z"
	/>

	<style>
		#top-arrow {
			fill: #306998;
		}

		#bottom-arrow {
			fill: #FFD43B;
		}
	</style>
  </g>
  <!-- + sign -->
  <text x="87.1" y="30.0" text-anchor="middle"
        font-family="sans-serif" font-size="22" font-weight="bold" fill="#555">+</text>
  <!-- Invent hat -->
  <g transform="translate(115.1, 0) scale(0.3276)">
    <defs><style>.d{fill:#351b3e;}</style></defs><g id="a"/><g id="b"><g id="c"><g><path class="d" d="M51.57,139.22c32.97,11.37,63.63,9.18,68.48-4.89,4.85-14.07-17.94-34.69-50.91-46.06C36.16,76.9,5.5,79.09,.65,93.16c-4.85,14.07,17.94,34.69,50.91,46.06Zm-28.2-38.23c2.19-6.36,20.53-5.81,40.96,1.24,20.43,7.04,35.21,17.91,33.02,24.27-2.19,6.36-20.53,5.81-40.96-1.24-20.43-7.04-35.21-17.91-33.02-24.27Z"/><path class="d" d="M32.05,74.91c12.2,.31,24.03,2.67,35.63,6.41,13.54,4.36,26.34,10.22,37.9,18.61,1.69,1.23,1.69,1.22,2.66-.41,9.04-15.16,18.07-30.34,27.14-45.49,1.88-3.14,3.69-6.26,3.62-10.1-.09-5.1-2.02-9.54-4.8-13.66-5.52-8.18-13.11-14.06-21.63-18.74C100.88,5.1,88.38,1.16,75.02,.2c-8.13-.58-16.15-.01-23.81,3.05-5.09,2.03-9.46,4.98-11.85,10.2-1.1,2.4-1.17,5-1.49,7.54-.8,6.36-1.59,12.72-2.38,19.07l-1.86,15.12c-.85,6.35-1.7,12.7-2.55,19.04-.12,.87,.49,.66,.98,.67Z"/></g></g></g>
  </g>
</svg>